# xmcd CD database file
#
# Track frame offsets:
#	150
#	33402
#	49440
#	72842
#	96982
#	125452
#	142765
#	157332
#	186380
#	215255
#	232610
#
# Disc length: 3711 seconds
#
# Revision: 3
# Processed by: cddbd v1.5.2PL0 Copyright (c) Steve Scherf et al.
# Submitted via: CDex 1.70beta3
#
DISCID=9b0e7d0b
DTITLE=Rei Harakami - Opa*q
DYEAR=2005
DGENRE=Electronic
TTITLE0=Glimglim
TTITLE1=Chromatic Cliff
TTITLE2=Double Flat
TTITLE3=300ml (Milk)
TTITLE4=Triple Flat
TTITLE5=Poof
TTITLE6=V
TTITLE7=On (Ian O'brien Mix)
TTITLE8=Double Flat (Max404 Mix)
TTITLE9=299ml (Gu-nu)
TTITLE10=Schw Schw
EXTD=YEAR: 2005
EXTT0=
EXTT1=
EXTT2=
EXTT3=
EXTT4=
EXTT5=
EXTT6=
EXTT7=
EXTT8=
EXTT9=
EXTT10=
PLAYORDER=
